<?xml version="1.0" encoding="utf-8"?>
<!-- Generator: Adobe Illustrator 17.0.2, SVG Export Plug-In . SVG Version: 6.00 Build 0)  -->
<!DOCTYPE svg PUBLIC "-//W3C//DTD SVG 1.1//EN" "http://www.w3.org/Graphics/SVG/1.1/DTD/svg11.dtd">
<svg version="1.1" id="Layer_1" xmlns="http://www.w3.org/2000/svg" xmlns:xlink="http://www.w3.org/1999/xlink" x="0px" y="0px"
	 width="246.093px" height="226.599px" viewBox="0 0 246.093 226.599" enable-background="new 0 0 246.093 226.599"
	 xml:space="preserve">
<g>
	<polygon fill="#FFFFFF" points="10.247,61.904 10.247,192.732 91.179,210.578 91.179,176.613 233.25,144.379 233.25,11.307 	"/>
	<polygon fill="#939598" points="86.179,204.355 15.247,188.714 15.247,136.81 86.179,152.453 	"/>
	<polygon fill="#F16680" points="228.25,140.386 15.247,188.714 15.247,65.896 228.25,17.57 	"/>
	<g>
		<path d="M37.001,73.091c1.919-0.438,3.406-0.16,4.459,0.829c1.055,0.989,1.838,2.457,2.351,4.403
			c0.513,1.946,0.815,4.254,0.907,6.921s0.123,5.462,0.096,8.386c-0.029,2.924-0.117,5.746-0.261,8.467
			c-0.146,2.721-0.495,5.176-1.048,7.365c-0.554,2.188-1.369,4.02-2.447,5.495c-1.078,1.475-2.578,2.431-4.496,2.867l-9.597,2.184
			l0.44-44.733L37.001,73.091z M34.974,109.809c0.639-0.146,1.15-0.418,1.532-0.817c0.382-0.399,0.679-1.124,0.891-2.172
			c0.21-1.049,0.354-2.498,0.433-4.349c0.076-1.851,0.131-4.28,0.16-7.288s0.023-5.422-0.018-7.248
			c-0.041-1.823-0.158-3.215-0.35-4.172c-0.191-0.956-0.475-1.548-0.852-1.775c-0.375-0.226-0.883-0.268-1.523-0.121l-1.314,0.299
			l-0.274,27.943L34.974,109.809z"/>
		<path d="M63.165,67.137l-0.094,9.522l-8.423,1.917l-0.075,7.644l7.89-1.795l-0.09,9.146l-7.89,1.796l-0.088,8.896l8.743-1.989
			l-0.094,9.522l-15.354,3.494l0.44-44.733L63.165,67.137z"/>
		<path d="M76.185,75.99c0.013-1.337-0.131-2.439-0.429-3.31c-0.3-0.87-0.769-1.231-1.408-1.087
			c-0.71,0.163-1.235,0.688-1.575,1.578c-0.341,0.891-0.516,1.837-0.525,2.84c-0.014,1.462,0.241,2.561,0.767,3.295
			c0.524,0.734,1.187,1.322,1.985,1.767c0.799,0.442,1.658,0.883,2.576,1.319c0.918,0.438,1.773,1.088,2.569,1.948
			c0.795,0.86,1.45,2.077,1.968,3.646c0.516,1.571,0.761,3.715,0.734,6.429c-0.047,4.762-0.852,8.394-2.412,10.894
			c-1.562,2.503-3.799,4.084-6.713,4.748c-1.375,0.312-2.588,0.39-3.637,0.233c-1.051-0.156-1.933-0.644-2.646-1.46
			c-0.714-0.817-1.251-1.976-1.614-3.478c-0.364-1.501-0.534-3.421-0.512-5.761l0.016-1.566l6.398-1.456l-0.012,1.064
			c-0.017,1.922,0.169,3.224,0.564,3.904c0.395,0.682,0.912,0.949,1.553,0.803c0.687-0.156,1.219-0.693,1.594-1.613
			c0.375-0.918,0.568-1.983,0.581-3.195c0.015-1.461-0.229-2.562-0.73-3.303c-0.501-0.738-1.134-1.324-1.897-1.756
			c-0.764-0.43-1.594-0.855-2.486-1.278c-0.895-0.421-1.723-1.046-2.482-1.873c-0.761-0.827-1.387-1.997-1.881-3.511
			c-0.493-1.513-0.727-3.585-0.701-6.216c0.045-4.552,0.766-8.177,2.164-10.87c1.397-2.693,3.494-4.357,6.29-4.993
			c2.892-0.657,4.97-0.038,6.241,1.86c1.27,1.9,1.881,5.251,1.833,10.054l-6.184,1.407L76.185,75.99z"/>
		<path d="M105.655,57.468l2.405,25.896l0.071-0.017l2.926-27.107l9.453-2.152l-0.439,44.734l-6.184,1.406l0.328-33.33l-0.071,0.017
			l-3.847,34.131l-4.762,1.084l-3.191-32.53l-0.07,0.016l-0.328,33.332l-6.184,1.406l0.44-44.733L105.655,57.468z"/>
		<path d="M123.609,65.043c0.337-3.016,0.87-5.533,1.599-7.554s1.678-3.591,2.848-4.712c1.169-1.119,2.596-1.87,4.277-2.254
			c1.682-0.383,3.1-0.277,4.252,0.313c1.152,0.593,2.075,1.737,2.768,3.433c0.693,1.698,1.18,3.983,1.458,6.858
			c0.278,2.874,0.397,6.401,0.356,10.577c-0.041,4.178-0.23,7.772-0.566,10.786c-0.337,3.015-0.87,5.533-1.6,7.554
			c-0.729,2.021-1.678,3.561-2.847,4.618c-1.169,1.057-2.595,1.776-4.276,2.159c-1.682,0.383-3.1,0.311-4.253-0.219
			c-1.153-0.529-2.075-1.643-2.769-3.34c-0.692-1.697-1.179-3.982-1.457-6.857c-0.279-2.875-0.398-6.399-0.357-10.576
			C123.083,71.652,123.272,68.056,123.609,65.043z M129.863,81.747c0.028,1.974,0.112,3.528,0.256,4.661
			c0.143,1.135,0.358,1.898,0.651,2.29c0.291,0.393,0.686,0.531,1.184,0.419c0.497-0.113,0.896-0.433,1.197-0.961
			c0.301-0.525,0.533-1.393,0.699-2.597c0.165-1.204,0.281-2.804,0.349-4.8c0.066-1.993,0.115-4.494,0.145-7.502
			c0.03-3.008,0.03-5.498,0.003-7.472c-0.029-1.971-0.113-3.525-0.256-4.661c-0.143-1.133-0.359-1.897-0.651-2.289
			c-0.292-0.392-0.687-0.531-1.184-0.419c-0.497,0.114-0.898,0.434-1.197,0.96c-0.302,0.528-0.534,1.395-0.699,2.598
			c-0.167,1.205-0.282,2.805-0.349,4.799c-0.068,1.994-0.115,4.496-0.145,7.504C129.837,77.284,129.835,79.775,129.863,81.747z"/>
		<path d="M150.749,47.207l-0.439,44.734l-6.611,1.504l0.439-44.734L150.749,47.207z"/>
		<path d="M161.56,44.748l3.994,26.596l0.07-0.016l0.271-27.567l6.184-1.407l-0.439,44.734l-7.25,1.649l-4.135-26.626l-0.071,0.016
			l-0.272,27.629l-6.184,1.408l0.439-44.734L161.56,44.748z"/>
		<path d="M190.67,38.123l-0.094,9.524l-8.423,1.916l-0.074,7.644l7.889-1.796l-0.09,9.147l-7.89,1.795l-0.087,8.896l8.742-1.988
			l-0.094,9.523l-15.352,3.492l0.44-44.733L190.67,38.123z"/>
		<path d="M203.689,46.975c0.013-1.337-0.13-2.439-0.429-3.31c-0.299-0.869-0.768-1.23-1.408-1.086
			c-0.71,0.162-1.236,0.688-1.575,1.578c-0.341,0.89-0.515,1.836-0.524,2.839c-0.014,1.462,0.241,2.561,0.766,3.295
			c0.524,0.735,1.186,1.323,1.986,1.767c0.799,0.442,1.658,0.883,2.576,1.32c0.917,0.438,1.773,1.087,2.568,1.947
			c0.795,0.861,1.451,2.077,1.969,3.646c0.516,1.57,0.761,3.715,0.734,6.428c-0.047,4.762-0.852,8.394-2.412,10.894
			c-1.562,2.503-3.799,4.084-6.714,4.747c-1.374,0.312-2.587,0.39-3.637,0.233c-1.051-0.156-1.933-0.643-2.646-1.46
			c-0.713-0.817-1.251-1.976-1.613-3.477c-0.365-1.5-0.535-3.42-0.512-5.76l0.016-1.566l6.396-1.455l-0.01,1.064
			c-0.02,1.922,0.168,3.223,0.564,3.904c0.395,0.682,0.912,0.948,1.553,0.803c0.686-0.156,1.217-0.693,1.594-1.613
			c0.375-0.919,0.568-1.982,0.58-3.195c0.015-1.462-0.229-2.562-0.729-3.303c-0.502-0.739-1.134-1.325-1.897-1.756
			c-0.764-0.43-1.594-0.856-2.487-1.279c-0.894-0.421-1.722-1.045-2.481-1.873c-0.762-0.826-1.388-1.996-1.881-3.51
			c-0.494-1.514-0.727-3.586-0.701-6.217c0.045-4.552,0.766-8.176,2.164-10.869c1.396-2.693,3.494-4.357,6.29-4.994
			c2.89-0.657,4.97-0.037,6.24,1.861c1.27,1.899,1.88,5.25,1.833,10.053l-6.184,1.408L203.689,46.975z"/>
		<path d="M36.624,140.291c0.014-1.336-0.131-2.439-0.429-3.31c-0.3-0.869-0.769-1.231-1.407-1.086
			c-0.711,0.161-1.236,0.688-1.576,1.578c-0.34,0.89-0.515,1.836-0.524,2.838c-0.015,1.462,0.24,2.562,0.766,3.296
			c0.524,0.735,1.187,1.324,1.985,1.767c0.8,0.443,1.658,0.884,2.576,1.32c0.918,0.439,1.773,1.088,2.569,1.946
			c0.796,0.862,1.451,2.077,1.968,3.648c0.517,1.57,0.762,3.714,0.734,6.428c-0.047,4.762-0.85,8.394-2.412,10.895
			c-1.561,2.503-3.799,4.085-6.713,4.747c-1.375,0.314-2.588,0.391-3.637,0.234c-1.051-0.157-1.933-0.644-2.644-1.462
			c-0.715-0.816-1.252-1.976-1.615-3.477c-0.364-1.501-0.533-3.42-0.511-5.76l0.015-1.566l6.398-1.455l-0.012,1.066
			c-0.019,1.922,0.169,3.223,0.564,3.902c0.396,0.682,0.913,0.949,1.553,0.804c0.688-0.156,1.219-0.694,1.594-1.613
			c0.375-0.919,0.569-1.983,0.581-3.195c0.015-1.461-0.229-2.562-0.729-3.303c-0.502-0.74-1.135-1.325-1.898-1.757
			c-0.764-0.43-1.593-0.856-2.487-1.277c-0.893-0.422-1.722-1.046-2.481-1.873c-0.76-0.827-1.387-1.998-1.88-3.511
			c-0.493-1.513-0.728-3.585-0.702-6.217c0.045-4.552,0.766-8.176,2.164-10.868c1.398-2.693,3.494-4.358,6.29-4.994
			c2.892-0.658,4.971-0.038,6.241,1.86c1.269,1.9,1.881,5.25,1.834,10.054l-6.185,1.407L36.624,140.291z"/>
		<path d="M46.011,137.999c0.336-3.015,0.87-5.532,1.6-7.553c0.729-2.02,1.678-3.59,2.848-4.712
			c1.168-1.119,2.594-1.871,4.277-2.254c1.682-0.383,3.099-0.277,4.252,0.313c1.152,0.593,2.074,1.737,2.768,3.434
			c0.692,1.697,1.178,3.982,1.457,6.857c0.279,2.875,0.398,6.4,0.357,10.576c-0.041,4.178-0.23,7.773-0.567,10.788
			c-0.337,3.014-0.87,5.532-1.599,7.552c-0.73,2.021-1.679,3.561-2.848,4.618c-1.168,1.058-2.594,1.777-4.275,2.16
			c-1.684,0.383-3.102,0.309-4.254-0.22c-1.153-0.528-2.076-1.643-2.768-3.34c-0.693-1.696-1.18-3.983-1.459-6.857
			c-0.278-2.874-0.397-6.399-0.355-10.576C45.484,144.609,45.673,141.013,46.011,137.999z M52.265,154.704
			c0.027,1.974,0.113,3.528,0.256,4.662c0.143,1.133,0.359,1.897,0.651,2.288c0.292,0.393,0.686,0.532,1.184,0.419
			c0.498-0.113,0.896-0.433,1.197-0.96c0.3-0.527,0.534-1.393,0.7-2.597c0.165-1.204,0.28-2.804,0.348-4.799
			c0.067-1.994,0.115-4.496,0.144-7.503c0.029-3.007,0.031-5.498,0.003-7.472c-0.028-1.972-0.112-3.526-0.255-4.661
			c-0.144-1.134-0.36-1.898-0.652-2.29c-0.292-0.392-0.686-0.531-1.184-0.418c-0.498,0.113-0.896,0.434-1.197,0.96
			c-0.301,0.528-0.533,1.393-0.699,2.597c-0.166,1.206-0.282,2.806-0.348,4.8c-0.068,1.995-0.116,4.496-0.146,7.503
			C52.237,150.24,52.237,152.731,52.265,154.704z"/>
		<path d="M76.401,127.801c-0.275-0.854-0.732-1.209-1.372-1.063c-0.497,0.113-0.897,0.434-1.197,0.96
			c-0.302,0.528-0.534,1.394-0.699,2.597c-0.167,1.205-0.282,2.806-0.349,4.799c-0.068,1.996-0.115,4.497-0.145,7.504
			c-0.029,3.008-0.031,5.498-0.003,7.471c0.027,1.974,0.112,3.528,0.256,4.661c0.143,1.134,0.358,1.897,0.651,2.29
			c0.291,0.394,0.686,0.531,1.184,0.418c0.402-0.092,0.735-0.345,1-0.759c0.264-0.413,0.471-1.055,0.621-1.924
			c0.15-0.866,0.263-2.006,0.336-3.42c0.072-1.412,0.12-3.185,0.141-5.314l6.397-1.455l-0.032,3.32
			c-0.031,3.133-0.293,5.755-0.787,7.867c-0.494,2.113-1.137,3.833-1.93,5.159c-0.793,1.328-1.695,2.304-2.707,2.929
			c-1.011,0.626-2.049,1.061-3.115,1.303c-1.848,0.421-3.361,0.369-4.537-0.154c-1.178-0.524-2.088-1.641-2.733-3.348
			c-0.646-1.708-1.077-4.007-1.298-6.895c-0.219-2.888-0.309-6.419-0.268-10.597c0.042-4.26,0.226-7.906,0.551-10.94
			c0.325-3.031,0.853-5.548,1.582-7.548c0.728-1.999,1.677-3.538,2.846-4.617c1.169-1.078,2.606-1.812,4.312-2.2
			c1.493-0.339,2.758-0.293,3.793,0.137c1.036,0.432,1.873,1.191,2.514,2.274c0.639,1.084,1.098,2.458,1.377,4.124
			c0.279,1.666,0.408,3.585,0.387,5.757l-0.027,2.819l-6.396,1.455l0.023-2.506C76.802,130.356,76.677,128.656,76.401,127.801z"/>
		<path d="M92.828,115.686l-0.44,44.733l-6.609,1.504l0.439-44.732L92.828,115.686z"/>
		<path d="M109.06,111.993l5.744,43.326l-7.037,1.602l-0.599-7.678l-5.26,1.197l-0.753,7.984l-6.93,1.577l6.518-46.115
			L109.06,111.993z M104.775,122.094l-1.999,19.396l3.696-0.841l-1.626-18.572L104.775,122.094z"/>
		<path d="M123.759,108.649l-0.346,35.21l8.138-1.853l-0.093,9.523l-14.75,3.356l0.439-44.733L123.759,108.649z"/>
		<path d="M154.169,110.105c-0.275-0.854-0.732-1.209-1.373-1.063c-0.496,0.113-0.896,0.435-1.197,0.96
			c-0.301,0.527-0.533,1.394-0.698,2.598c-0.167,1.205-0.282,2.806-0.349,4.799c-0.068,1.995-0.115,4.496-0.145,7.503
			c-0.029,3.008-0.031,5.498-0.003,7.471c0.027,1.975,0.112,3.528,0.256,4.662c0.142,1.134,0.358,1.897,0.651,2.289
			c0.291,0.393,0.686,0.531,1.184,0.418c0.402-0.091,0.735-0.345,1-0.759c0.264-0.413,0.471-1.055,0.622-1.924
			c0.149-0.866,0.262-2.006,0.335-3.42c0.072-1.412,0.12-3.184,0.141-5.313l6.397-1.456l-0.032,3.32
			c-0.031,3.133-0.293,5.755-0.787,7.867c-0.494,2.113-1.137,3.833-1.93,5.159c-0.793,1.327-1.695,2.304-2.707,2.929
			c-1.011,0.626-2.049,1.061-3.115,1.304c-1.848,0.42-3.361,0.368-4.537-0.155c-1.178-0.524-2.088-1.641-2.733-3.348
			c-0.645-1.708-1.077-4.007-1.298-6.895c-0.219-2.887-0.309-6.42-0.268-10.597c0.042-4.26,0.225-7.906,0.551-10.94
			c0.325-3.031,0.852-5.548,1.582-7.548c0.728-1.999,1.677-3.538,2.846-4.618c1.169-1.077,2.607-1.811,4.312-2.199
			c1.492-0.34,2.757-0.293,3.793,0.138c1.035,0.431,1.873,1.189,2.514,2.272c0.639,1.084,1.098,2.458,1.377,4.124
			c0.279,1.665,0.408,3.585,0.387,5.757l-0.027,2.819l-6.396,1.456l0.023-2.506C154.569,112.661,154.444,110.96,154.169,110.105z"/>
		<path d="M170.678,97.972l-0.347,35.21l8.139-1.852l-0.094,9.523l-14.748,3.356l0.439-44.733L170.678,97.972z"/>
		<path d="M187.11,126.425c-0.021,2.173,0.142,3.583,0.49,4.233c0.348,0.649,0.83,0.904,1.446,0.765
			c0.616-0.141,1.104-0.616,1.468-1.429c0.363-0.811,0.555-2.302,0.576-4.475l0.317-32.266l6.61-1.504l-0.289,29.32
			c-0.03,3.134-0.246,5.787-0.645,7.961c-0.399,2.176-0.967,3.971-1.702,5.388c-0.734,1.418-1.637,2.479-2.707,3.18
			c-1.072,0.702-2.306,1.213-3.703,1.53c-1.375,0.312-2.6,0.361-3.672,0.148c-1.074-0.214-1.966-0.865-2.676-1.955
			c-0.711-1.088-1.246-2.633-1.604-4.636c-0.359-2.001-0.522-4.569-0.492-7.702l0.289-29.319l6.609-1.506L187.11,126.425z"/>
		<path d="M211.481,88.687c2.368-0.539,4.104,0.076,5.21,1.846c1.106,1.77,1.643,4.346,1.609,7.729
			c-0.012,1.17-0.1,2.326-0.264,3.467c-0.166,1.144-0.412,2.2-0.742,3.17c-0.328,0.972-0.744,1.826-1.248,2.565
			c-0.504,0.74-1.111,1.316-1.826,1.728v0.125c0.826-0.062,1.535,0.163,2.121,0.675c0.586,0.514,1.062,1.206,1.434,2.081
			c0.369,0.875,0.637,1.865,0.803,2.974c0.168,1.108,0.244,2.247,0.232,3.417c-0.018,1.922-0.178,3.728-0.479,5.422
			c-0.301,1.693-0.758,3.194-1.373,4.501c-0.615,1.308-1.412,2.395-2.391,3.263c-0.978,0.869-2.153,1.46-3.527,1.773l-9.987,2.272
			l0.441-44.733L211.481,88.687z M209.595,125.373c0.616-0.141,1.166-0.713,1.648-1.719c0.482-1.006,0.733-2.448,0.752-4.328
			c0.018-1.755-0.207-3.036-0.671-3.848c-0.466-0.812-1.006-1.146-1.622-1.007l-1.848,0.42l-0.107,10.901L209.595,125.373z
			 M209.531,106.633c0.686-0.156,1.213-0.724,1.577-1.702c0.363-0.979,0.552-2.073,0.564-3.285c0.013-1.254-0.154-2.299-0.501-3.138
			c-0.346-0.837-0.863-1.179-1.549-1.022l-1.6,0.363l-0.09,9.148L209.531,106.633z"/>
	</g>
</g>
</svg>
