<?xml version="1.0" encoding="utf-8"?>
<!-- Generator: Adobe Illustrator 17.0.0, SVG Export Plug-In . SVG Version: 6.00 Build 0)  -->
<!DOCTYPE svg PUBLIC "-//W3C//DTD SVG 1.1//EN" "http://www.w3.org/Graphics/SVG/1.1/DTD/svg11.dtd">
<svg version="1.1" xmlns="http://www.w3.org/2000/svg" xmlns:xlink="http://www.w3.org/1999/xlink" x="0px" y="0px" width="985px"
	 height="500px" viewBox="0 0 985 500" enable-background="new 0 0 985 500" xml:space="preserve">
<defs>
	<script  xlink:href="svg.js"  language="JavaScript">
	</script>
</defs>
<g id="Layer_2">
	<polygon fill="none" stroke="#FFFFFF" stroke-width="2" stroke-miterlimit="10" points="226,119 60,119 60,431 190,431 190,423 
		226,423 	"/>
	<path fill="none" stroke="#FFFFFF" stroke-width="2" stroke-miterlimit="10" d="M662,62v224H529v140h374.56
		c0,0,22.44-1.389,22.44-26.433V62H662z"/>
	<line fill="none" stroke="#FFFFFF" stroke-miterlimit="10" x1="926" y1="368.5" x2="906" y2="368.5"/>
	<polyline fill="none" stroke="#FFFFFF" stroke-miterlimit="10" points="893,368.5 871.5,368.5 871.5,351.285 771.5,320.731 
		771.5,229 	"/>
	<polyline fill="none" stroke="#FFFFFF" stroke-miterlimit="10" points="773,217.5 753.5,217.5 753.5,236.5 696.5,236.5 
		696.5,299.5 754,299.5 	"/>
	<line fill="none" stroke="#FFFFFF" stroke-miterlimit="10" x1="752.5" y1="247" x2="752.5" y2="286"/>
	<line fill="none" stroke="#FFFFFF" stroke-miterlimit="10" x1="753" y1="267.5" x2="697" y2="267.5"/>
	<polyline fill="none" stroke="#FFFFFF" stroke-miterlimit="10" points="824.5,426 824.5,413.183 770.699,377.5 755.5,377.5 
		755.5,426 	"/>
	<polyline fill="none" stroke="#FFFFFF" stroke-miterlimit="10" points="677,334.5 662.5,334.5 662.5,353.5 737.5,353.5 
		737.5,326.5 712.5,326.5 712.5,350 	"/>
	<line fill="none" stroke="#FFFFFF" stroke-miterlimit="10" x1="687" y1="333.5" x2="699" y2="333.5"/>
	<line fill="none" stroke="#FFFFFF" stroke-miterlimit="10" x1="694.5" y1="333" x2="694.5" y2="353"/>
	<polyline fill="none" stroke="#FFFFFF" stroke-miterlimit="10" points="695,315.5 665.5,315.5 665.5,286.5 662,286.5 	"/>
	<line fill="none" stroke="#FFFFFF" stroke-miterlimit="10" x1="697" y1="274.5" x2="692" y2="274.5"/>
	<line fill="none" stroke="#FFFFFF" stroke-miterlimit="10" x1="680" y1="274.5" x2="662" y2="274.5"/>
	<line fill="none" stroke="#FFFFFF" stroke-miterlimit="10" x1="623.5" y1="285" x2="623.5" y2="321"/>
	<line fill="none" stroke="#FFFFFF" stroke-miterlimit="10" x1="647.5" y1="285" x2="647.5" y2="301"/>
	<line fill="none" stroke="#FFFFFF" stroke-miterlimit="10" x1="624" y1="313.5" x2="648" y2="313.5"/>
	<polyline fill="none" stroke="#FFFFFF" stroke-miterlimit="10" points="648,333.5 623.5,333.5 623.5,353 	"/>
	<line fill="none" stroke="#FFFFFF" stroke-width="2" stroke-miterlimit="10" x1="590" y1="228" x2="661" y2="228"/>
	<line fill="none" stroke="#FFFFFF" stroke-width="2" stroke-miterlimit="10" x1="529" y1="426" x2="268" y2="426"/>
	<polygon fill="none" stroke="#FFFFFF" stroke-miterlimit="10" points="364.884,255.031 299.019,255.705 331.388,305.414 	"/>
	<line fill="none" stroke="#FFFFFF" stroke-miterlimit="10" x1="126.5" y1="119" x2="126.5" y2="166"/>
	<polyline fill="none" stroke="#FFFFFF" stroke-miterlimit="10" points="127,166.5 75.5,166.5 75.5,180.5 128,180.5 	"/>
	<polyline fill="none" stroke="#FFFFFF" stroke-miterlimit="10" points="226,344.5 190.5,344.5 190.5,347 	"/>
	<polyline fill="none" stroke="#FFFFFF" stroke-miterlimit="10" points="226,382.5 191.5,382.5 191.5,378 	"/>
	<line fill="none" stroke="#FFFFFF" stroke-miterlimit="10" x1="190.5" y1="358" x2="190.5" y2="367"/>
	<line fill="none" stroke="#FFFFFF" stroke-miterlimit="10" x1="189.5" y1="423" x2="189.5" y2="397"/>
	<polyline fill="none" stroke="#FFFFFF" stroke-miterlimit="10" points="60,343.5 126.5,343.5 126.5,386 	"/>
	<polyline fill="none" stroke="#FFFFFF" stroke-miterlimit="10" points="191,344.5 174.5,344.5 174.5,387 	"/>
	<polyline fill="none" stroke="#FFFFFF" stroke-miterlimit="10" points="878.5,61 878.5,83.5 871,83.5 	"/>
	<line fill="none" stroke="#FFFFFF" stroke-miterlimit="10" x1="860" y1="83.5" x2="821" y2="83.5"/>
	<line fill="none" stroke="#FFFFFF" stroke-miterlimit="10" x1="811" y1="83.5" x2="772" y2="83.5"/>
	<line fill="none" stroke="#FFFFFF" stroke-miterlimit="10" x1="761" y1="83.5" x2="709" y2="83.5"/>
	<line fill="none" stroke="#FFFFFF" stroke-miterlimit="10" x1="751.5" y1="62" x2="751.5" y2="83"/>
	<line fill="none" stroke="#FFFFFF" stroke-miterlimit="10" x1="696" y1="83.5" x2="662" y2="83.5"/>
	
		<line fill="none" stroke="#FFFFFF" stroke-width="4" stroke-miterlimit="10" x1="506.678" y1="116.866" x2="559.167" y2="186.875"/>
	<g>
		<path fill="#FFFFFF" d="M787.839,29.889h10.619v1.62h-8.699v7.8h8.13v1.62h-8.13v10.379h-1.92V29.889z"/>
		<path fill="#FFFFFF" d="M800.738,29.889h1.92v21.419h-1.92V29.889z"/>
		<path fill="#FFFFFF" d="M806.138,29.889h6.391c3.569,0,5.55,2.04,5.55,5.37c0,2.58-1.021,4.89-3.87,5.43v0.06
			c2.67,0.24,3.569,1.77,3.66,5.07l0.06,2.34c0.03,1.17,0.15,2.31,0.9,3.15h-2.25c-0.45-0.75-0.54-1.86-0.57-3l-0.06-1.8
			c-0.12-3.78-0.811-4.98-4.261-4.98h-3.63v9.78h-1.92V29.889z M808.058,39.908h3.301c3.029,0,4.8-1.38,4.8-4.2
			c0-2.61-1.11-4.2-4.59-4.2h-3.511V39.908z"/>
		<path fill="#FFFFFF" d="M830.527,35.378c0-2.64-1.229-4.23-3.84-4.23c-2.609,0-4.05,1.71-4.05,3.84c0,6.39,10.38,2.88,10.38,10.41
			c0,4.14-2.58,6.27-6.479,6.27c-4.02,0-6.24-2.16-6.24-6.36v-0.63h1.92v0.81c0,2.73,1.44,4.56,4.26,4.56c2.7,0,4.62-1.35,4.62-4.35
			c0-6.36-10.38-2.73-10.38-10.5c0-3.36,2.19-5.67,5.91-5.67c3.99,0,5.819,2.04,5.819,5.85H830.527z"/>
		<path fill="#FFFFFF" d="M839.558,31.508h-5.52v-1.62h12.96v1.62h-5.521v19.799h-1.92V31.508z"/>
		<path fill="#FFFFFF" d="M856.057,29.889h10.62v1.62h-8.7v7.8h8.13v1.62h-8.13v10.379h-1.92V29.889z"/>
		<path fill="#FFFFFF" d="M868.837,29.889h1.92v19.799h8.88v1.62h-10.8V29.889z"/>
		<path fill="#FFFFFF" d="M888.276,29.528c4.38,0,6.84,3.39,6.84,11.07s-2.46,11.069-6.84,11.069s-6.84-3.39-6.84-11.069
			S883.896,29.528,888.276,29.528z M888.276,50.048c3.06,0,4.92-2.52,4.92-9.45s-1.86-9.45-4.92-9.45s-4.92,2.52-4.92,9.45
			S885.217,50.048,888.276,50.048z"/>
		<path fill="#FFFFFF" d="M904.957,29.528c4.379,0,6.839,3.39,6.839,11.07s-2.46,11.069-6.839,11.069c-4.38,0-6.84-3.39-6.84-11.069
			S900.577,29.528,904.957,29.528z M904.957,50.048c3.06,0,4.919-2.52,4.919-9.45s-1.859-9.45-4.919-9.45
			c-3.061,0-4.92,2.52-4.92,9.45S901.896,50.048,904.957,50.048z"/>
		<path fill="#FFFFFF" d="M914.977,29.889h6.391c3.569,0,5.55,2.04,5.55,5.37c0,2.58-1.021,4.89-3.87,5.43v0.06
			c2.67,0.24,3.569,1.77,3.66,5.07l0.06,2.34c0.03,1.17,0.15,2.31,0.9,3.15h-2.25c-0.45-0.75-0.54-1.86-0.57-3l-0.06-1.8
			c-0.12-3.78-0.811-4.98-4.261-4.98h-3.63v9.78h-1.92V29.889z M916.896,39.908h3.301c3.029,0,4.8-1.38,4.8-4.2
			c0-2.61-1.11-4.2-4.59-4.2h-3.511V39.908z"/>
	</g>
</g>
<g id="Layer_3">
	
		<rect x="59" y="180" onclick="clickTheater()" onmouseover="showTheater();evt.target.setAttribute('opacity', '1.0')" onmouseout="resetOpacity();evt.target.setAttribute('opacity', '0.5')" opacity="0.3" fill="#54ACFC" width="166" height="165"/>
	
		<polygon onclick="clickRestaurant()" onmouseover="showRestaurant();evt.target.setAttribute('opacity', '1.0')" onmouseout="resetOpacity();evt.target.setAttribute('opacity', '0.5')" opacity="0.3" fill="#F5B242" points="
		662,62 926,62 926,369 871,369 871,351 771,320.731 771,218 753,218 753,237 696,237 696,275 662,275 	"/>
	
		<polygon onclick="clickGallery()" onmouseover="showGallery();evt.target.setAttribute('opacity', '1.0')" onmouseout="resetOpacity();evt.target.setAttribute('opacity', '0.5')" opacity="0.3" fill="#F76253" points="
		529,286 623,286 623,353 737,353 737,426 529,426 	"/>
	
		<rect x="623" y="286" onclick="clickMemorial()" onmouseover="showMemorial();evt.target.setAttribute('opacity', '1.0')" onmouseout="resetOpacity();evt.target.setAttribute('opacity', '0.5')" opacity="0.3" fill="#54ACFB" width="25" height="28"/>
	
		<polygon onclick="clickCourtyard()" onmouseover="showCourtyard();evt.target.setAttribute('opacity', '1.0');(this).css('cursor', 'pointer')" onmouseout="resetOpacity();evt.target.setAttribute('opacity', '0.5')" opacity="0.3" fill="#A252A0" points="
		529,426 529,286 662,286 662,228 590,228 479.788,81 226,81 226,427 	"/>
	
		<polygon onclick="clickcoffeeShop()" onmouseover="showcoffeeShop();evt.target.setAttribute('opacity', '1.0')" onmouseout="resetOpacity();evt.target.setAttribute('opacity', '0.5')" opacity="0.3" fill="#C4E04B" points="
		755,426 755,378 771,378 824,413.183 824,426 	"/>
</g>
</svg>
